<svg width="368" height="370" viewBox="0 0 368 370" fill="none" xmlns="http://www.w3.org/2000/svg">
<path d="M208.949 78.4881C208.949 78.4881 211.343 128.106 292.978 138.337C365.477 147.423 333.2 231.31 304.53 255.676C267.39 287.239 202.922 270.923 195.128 311.511C187.334 352.099 96.76 326.173 104.904 264.586C115.034 187.973 70.4733 206.763 51.3598 183.899C37.6418 167.489 50.1617 99.7877 99.4487 97.2356C140.922 95.0885 140.648 77.5806 145.25 65.142C151.888 47.2029 200.935 35.6277 208.949 78.4881Z" fill="#EEF2FF"/>
<path d="M84.7059 154.826C83.7772 150.506 86.526 146.252 90.8456 145.323L263.782 108.142C268.101 107.213 272.356 109.962 273.285 114.282L295.069 215.606C295.998 219.925 293.249 224.18 288.929 225.109L115.993 262.29C111.674 263.218 107.419 260.47 106.49 256.15L84.7059 154.826Z" fill="#A5B4FC"/>
<path d="M84.9743 156.67C83.2159 149.471 86.9739 145.153 92.2511 144.019L261.856 107.554C267.133 106.419 272.716 108.471 273.689 116.096L273.851 116.846L184.752 190.652L85.1355 157.42L84.9743 156.67Z" fill="#C7D2FE"/>
<path d="M291.995 68.9775V70H290.995V68.9775H291.995ZM291.995 64.8867V66.9316H290.995V64.8867H291.995ZM291.995 60.7959V62.8408H290.995V60.7959H291.995ZM279.571 59.6309L278.849 60.3535L278.142 59.6465L278.864 58.9238L279.571 59.6309ZM304.842 59.6465L304.135 60.3535L303.412 59.6309L304.119 58.9238L304.842 59.6465ZM291.995 56.7041V58.75H290.995V56.7041H291.995ZM282.46 56.7422L281.016 58.1865L280.309 57.4795L281.753 56.0352L282.46 56.7422ZM302.675 57.4795L301.968 58.1865L300.523 56.7422L301.23 56.0352L302.675 57.4795ZM285.349 53.8535L283.904 55.2979L283.197 54.5908L284.642 53.1465L285.349 53.8535ZM299.786 54.5908L299.079 55.2979L297.635 53.8535L298.342 53.1465L299.786 54.5908ZM291.995 52.6133V54.6592H290.995V52.6133H291.995ZM288.237 50.9648L286.793 52.4092L286.086 51.7021L287.53 50.2578L288.237 50.9648ZM296.897 51.7021L296.19 52.4092L294.745 50.9648L295.1 50.6113L295.453 50.2578L296.897 51.7021ZM291.995 48.5225V50.5684H290.995V48.5225H291.995ZM290.478 47.0049V47.4277L291.126 48.0762L289.682 49.5205L288.975 48.8135L289.783 48.0049H288.432V47.0049H290.478ZM294.568 47.0049V48.0049H293.199L294.008 48.8135L293.301 49.5205L291.856 48.0762L292.522 47.4102V47.0049H294.568ZM270.022 47.0049V48.0049H269V47.0049H270.022ZM274.113 47.0049V48.0049H272.068V47.0049H274.113ZM278.204 47.0049V48.0049H276.159V47.0049H278.204ZM282.296 47.0049V48.0049H280.25V47.0049H282.296ZM286.387 47.0049V48.0049H284.341V47.0049H286.387ZM298.659 47.0049V48.0049H296.613V47.0049H298.659ZM302.75 47.0049V48.0049H300.704V47.0049H302.75ZM306.841 47.0049V48.0049H304.796V47.0049H306.841ZM310.932 47.0049V48.0049H308.887V47.0049H310.932ZM314 47.0049V48.0049H312.978V47.0049H314ZM291.995 44.4316V45.793L293.309 44.4795L294.016 45.1865L292.571 46.6309L291.995 46.0547V46.4775H290.995V46.0479L290.412 46.6309L288.968 45.1865L289.675 44.4795L290.995 45.7998V44.4316H291.995ZM288.23 43.0352L287.523 43.7422L286.079 42.2979L286.786 41.5908L288.23 43.0352ZM296.904 42.2979L295.46 43.7422L294.753 43.0352L296.197 41.5908L296.904 42.2979ZM291.995 40.3408V42.3867H290.995V40.3408H291.995ZM285.342 40.1465L284.635 40.8535L283.19 39.4092L283.897 38.7021L285.342 40.1465ZM299.793 39.4092L298.349 40.8535L297.642 40.1465L299.086 38.7021L299.793 39.4092ZM291.995 36.25V38.2959H290.995V36.25H291.995ZM282.453 37.2578L282.1 37.6113L281.745 37.9648L280.301 36.5205L281.008 35.8135L282.453 37.2578ZM302.682 36.5205L301.237 37.9648L300.53 37.2578L301.975 35.8135L302.682 36.5205ZM279.563 34.3691L278.856 35.0762L278.135 34.3535L278.842 33.6465L279.563 34.3691ZM304.849 34.3535L304.126 35.0762L303.419 34.3691L304.142 33.6465L304.849 34.3535ZM291.995 32.1592V34.2041H290.995V32.1592H291.995ZM291.995 28.0684V30.1133H290.995V28.0684H291.995ZM291.995 25V26.0225H290.995V25H291.995Z" fill="#818CF8"/>
<path d="M69.7971 241.387V242H69.1971V241.387H69.7971ZM69.7971 238.932V240.159H69.1971V238.932H69.7971ZM69.7971 236.478V237.704H69.1971V236.478H69.7971ZM62.3428 235.779L61.9092 236.212L61.485 235.788L61.9186 235.354L62.3428 235.779ZM77.5051 235.788L77.0809 236.212L76.6473 235.779L77.0715 235.354L77.5051 235.788ZM69.7971 234.022V235.25H69.1971V234.022H69.7971ZM64.076 234.045L63.2094 234.912L62.7852 234.488L63.6518 233.621L64.076 234.045ZM76.2049 234.488L75.7807 234.912L74.9141 234.045L75.3383 233.621L76.2049 234.488ZM65.8092 232.312L64.9426 233.179L64.5184 232.754L65.385 231.888L65.8092 232.312ZM74.4717 232.754L74.0475 233.179L73.1809 232.312L73.6051 231.888L74.4717 232.754ZM69.7971 231.568V232.796H69.1971V231.568H69.7971ZM67.5424 230.579L66.6758 231.446L66.2516 231.021L67.1182 230.155L67.5424 230.579ZM72.7385 231.021L72.3143 231.446L71.4471 230.579L71.6598 230.367L71.8719 230.155L72.7385 231.021ZM69.7971 229.113V230.341H69.1971V229.113H69.7971ZM68.8865 228.203V228.457L69.2756 228.846L68.409 229.712L67.9848 229.288L68.4699 228.803H67.659V228.203H68.8865ZM71.341 228.203V228.803H70.5195L71.0047 229.288L70.5805 229.712L69.7139 228.846L70.1135 228.446V228.203H71.341ZM56.6135 228.203V228.803H56V228.203H56.6135ZM59.068 228.203V228.803H57.841V228.203H59.068ZM61.5225 228.203V228.803H60.2955V228.203H61.5225ZM63.9775 228.203V228.803H62.75V228.203H63.9775ZM66.432 228.203V228.803H65.2045V228.203H66.432ZM73.7955 228.203V228.803H72.568V228.203H73.7955ZM76.25 228.203V228.803H75.0225V228.203H76.25ZM78.7045 228.203V228.803H77.4775V228.203H78.7045ZM81.159 228.203V228.803H79.932V228.203H81.159ZM83 228.203V228.803H82.3865V228.203H83ZM69.7971 226.659V227.476L70.5852 226.688L71.0094 227.112L70.1428 227.979L69.7971 227.633V227.887H69.1971V227.629L68.8473 227.979L67.9807 227.112L68.4049 226.688L69.1971 227.48V226.659H69.7971ZM67.5383 225.821L67.1141 226.245L66.2475 225.379L66.6717 224.954L67.5383 225.821ZM72.7426 225.379L71.876 226.245L71.4518 225.821L72.3184 224.954L72.7426 225.379ZM69.7971 224.204V225.432H69.1971V224.204H69.7971ZM65.8051 224.088L65.3809 224.512L64.5143 223.646L64.9385 223.221L65.8051 224.088ZM74.4758 223.646L73.6092 224.512L73.185 224.088L74.0516 223.221L74.4758 223.646ZM69.7971 221.75V222.978H69.1971V221.75H69.7971ZM64.0719 222.355L63.8598 222.567L63.6471 222.779L62.7805 221.912L63.2047 221.488L64.0719 222.355ZM76.209 221.912L75.3424 222.779L74.9182 222.355L75.7848 221.488L76.209 221.912ZM62.3381 220.621L61.9139 221.046L61.4809 220.612L61.9051 220.188L62.3381 220.621ZM77.5092 220.612L77.0756 221.046L76.6514 220.621L77.085 220.188L77.5092 220.612ZM69.7971 219.296V220.522H69.1971V219.296H69.7971ZM69.7971 216.841V218.068H69.1971V216.841H69.7971ZM69.7971 215V215.613H69.1971V215H69.7971Z" fill="#818CF8"/>
</svg>


    