<svg width="32" height="32" viewBox="0 0 32 32" fill="none" xmlns="http://www.w3.org/2000/svg">
<g id="diamond (6) 1" clip-path="url(#clip0_845_7636)">
<g id="Group">
<path id="Vector" d="M9.49309 22.2429L15.4181 6.93174V0.000244141L5.1709 23.3065L9.49309 22.2429Z" fill="black"/>
<path id="Vector_2" d="M16.0002 8.65405L10.6245 22.5456L16.0002 26.7897L21.3758 22.5456L16.0002 8.65405ZM13.853 18.8514L15.0308 18.0043C15.6562 17.5541 16.336 18.4999 15.7108 18.9495L14.5329 19.7966C13.9146 20.2417 13.2247 19.3032 13.853 18.8514ZM18.4385 20.7473L14.9078 23.2868C14.2897 23.7318 13.5993 22.7937 14.2278 22.3417L17.7585 19.8021C18.3842 19.352 19.0634 20.2977 18.4385 20.7473Z" fill="black"/>
<path id="Vector_3" d="M15.418 27.8136L9.78925 23.3696L5.4707 24.4324L15.418 32.0008V27.8136Z" fill="black"/>
<path id="Vector_4" d="M22.2109 23.3696L16.582 27.8136V32.0008L26.5294 24.4324L22.2109 23.3696Z" fill="black"/>
<path id="Vector_5" d="M16.582 6.93198L22.5071 22.2431L26.8293 23.3067L16.582 0.000488281V6.93198Z" fill="black"/>
</g>
</g>
<defs>
<clipPath id="clip0_845_7636">
<rect width="32" height="32" fill="white"/>
</clipPath>
</defs>
</svg>
