<svg width="32" height="32" viewBox="0 0 32 32" fill="none" xmlns="http://www.w3.org/2000/svg">
<g id="diamond (6) 1" clip-path="url(#clip0_877_11814)">
<g id="Group">
<path id="Vector" d="M9.4929 22.2428L15.4179 6.93165V0.000152588L5.17072 23.3064L9.4929 22.2428Z" fill="white"/>
<path id="Vector_2" d="M16 8.65396L10.6243 22.5455L16 26.7896L21.3757 22.5455L16 8.65396ZM13.8528 18.8513L15.0306 18.0042C15.6561 17.554 16.3358 18.4998 15.7106 18.9494L14.5327 19.7965C13.9144 20.2416 13.2245 19.3031 13.8528 18.8513ZM18.4383 20.7472L14.9076 23.2868C14.2895 23.7317 13.5991 22.7936 14.2277 22.3416L17.7583 19.8021C18.384 19.3519 19.0632 20.2976 18.4383 20.7472Z" fill="white"/>
<path id="Vector_3" d="M15.4177 27.8135L9.78889 23.3694L5.47034 24.4322L15.4177 32.0006V27.8135Z" fill="white"/>
<path id="Vector_4" d="M22.2109 23.3694L16.582 27.8135V32.0006L26.5294 24.4322L22.2109 23.3694Z" fill="white"/>
<path id="Vector_5" d="M16.582 6.9318L22.5071 22.2429L26.8293 23.3065L16.582 0.000305176V6.9318Z" fill="white"/>
</g>
</g>
<defs>
<clipPath id="clip0_877_11814">
<rect width="32" height="32" fill="white"/>
</clipPath>
</defs>
</svg>
